<svg width="1280" height="208" viewBox="0 0 1280 208" fill="none" xmlns="http://www.w3.org/2000/svg">
<rect width="1280" height="120" fill="#2C343E"/>
<mask id="mask0_0_3261" style="mask-type:luminance" maskUnits="userSpaceOnUse" x="0" y="0" width="1280" height="120">
<rect width="1280" height="120" fill="white"/>
</mask>
<g mask="url(#mask0_0_3261)">
<path d="M1097.67 47H1076.33C1075.59 47 1075 47.593 1075 48.325V69.676C1075 70.407 1075.59 71 1076.33 71H1087.82V61.706H1084.69V58.084H1087.82V55.413C1087.82 52.313 1089.71 50.625 1092.48 50.625C1093.8 50.625 1094.94 50.724 1095.27 50.768V54.008L1093.36 54.009C1091.85 54.009 1091.56 54.724 1091.56 55.772V58.085H1095.15L1094.68 61.707H1091.56V71H1097.68C1098.41 71 1099 70.407 1099 69.675V48.325C1099 47.593 1098.41 47 1097.67 47Z" fill="#FEFCF7"/>
<path fill-rule="evenodd" clip-rule="evenodd" d="M1183 47C1179.74 47 1179.33 47.014 1178.05 47.072C1173.7 47.272 1171.27 49.69 1171.07 54.052C1171.01 55.333 1171 55.741 1171 59C1171 62.259 1171.01 62.668 1171.07 63.948C1171.27 68.306 1173.69 70.728 1178.05 70.928C1179.33 70.986 1179.74 71 1183 71C1186.26 71 1186.67 70.986 1187.95 70.928C1192.3 70.728 1194.73 68.31 1194.93 63.948C1194.99 62.668 1195 62.259 1195 59C1195 55.741 1194.99 55.333 1194.93 54.053C1194.73 49.699 1192.31 47.273 1187.95 47.073C1186.67 47.014 1186.26 47 1183 47ZM1183 49.163C1186.2 49.163 1186.58 49.175 1187.85 49.233C1191.1 49.381 1192.62 50.924 1192.77 54.152C1192.83 55.417 1192.84 55.797 1192.84 59.001C1192.84 62.206 1192.83 62.585 1192.77 63.85C1192.62 67.075 1191.1 68.621 1187.85 68.769C1186.58 68.827 1186.21 68.839 1183 68.839C1179.8 68.839 1179.42 68.827 1178.15 68.769C1174.89 68.62 1173.38 67.07 1173.23 63.849C1173.17 62.584 1173.16 62.205 1173.16 59C1173.16 55.796 1173.17 55.417 1173.23 54.151C1173.38 50.924 1174.9 49.38 1178.15 49.232C1179.42 49.175 1179.8 49.163 1183 49.163ZM1176.84 59C1176.84 55.597 1179.6 52.838 1183 52.838C1186.4 52.838 1189.16 55.597 1189.16 59C1189.16 62.404 1186.4 65.163 1183 65.163C1179.6 65.163 1176.84 62.403 1176.84 59ZM1183 63C1180.79 63 1179 61.21 1179 59C1179 56.791 1180.79 55 1183 55C1185.21 55 1187 56.791 1187 59C1187 61.21 1185.21 63 1183 63ZM1187.97 52.595C1187.97 51.8 1188.61 51.155 1189.41 51.155C1190.2 51.155 1190.85 51.8 1190.85 52.595C1190.85 53.39 1190.2 54.035 1189.41 54.035C1188.61 54.035 1187.97 53.39 1187.97 52.595Z" fill="#FEFCF7"/>
<path d="M1147 51.557C1146.12 51.949 1145.17 52.213 1144.17 52.332C1145.19 51.723 1145.97 50.758 1146.34 49.608C1145.39 50.172 1144.33 50.582 1143.21 50.803C1142.31 49.846 1141.03 49.248 1139.62 49.248C1136.44 49.248 1134.1 52.214 1134.82 55.293C1130.73 55.088 1127.1 53.128 1124.67 50.149C1123.38 52.362 1124 55.257 1126.19 56.723C1125.39 56.697 1124.63 56.476 1123.96 56.107C1123.91 58.388 1125.55 60.522 1127.91 60.997C1127.22 61.185 1126.46 61.229 1125.69 61.081C1126.32 63.037 1128.13 64.46 1130.29 64.5C1128.22 66.123 1125.61 66.848 1123 66.54C1125.18 67.937 1127.77 68.752 1130.55 68.752C1139.69 68.752 1144.85 61.031 1144.54 54.106C1145.5 53.411 1146.34 52.544 1147 51.557Z" fill="#FEFCF7"/>
<path fill-rule="evenodd" clip-rule="evenodd" d="M160.651 70.3035C160.651 70.8104 160.396 71.0638 159.885 71.0638H150.888C150.671 71.0638 150.494 71.0004 150.359 70.8737C150.223 70.747 150.155 70.5679 150.155 70.3365C150.155 70.1382 150.201 69.9784 150.293 69.8572C150.386 69.736 150.53 69.6368 150.725 69.5597L151.426 69.3448C151.6 69.2897 151.736 69.185 151.834 69.0307C151.931 68.8765 151.98 68.6561 151.98 68.3696V58.8159C151.98 58.6616 151.942 58.5321 151.866 58.4274C151.79 58.3228 151.649 58.2263 151.442 58.1382L150.497 57.8241C150.247 57.7029 150.068 57.5734 149.959 57.4357C149.851 57.298 149.796 57.1299 149.796 56.9316C149.796 56.7332 149.864 56.5707 150 56.444L150.053 56.3994C150.184 56.3024 150.353 56.2539 150.562 56.2539H151.993L151.981 56.1573C151.951 55.9641 151.874 55.7787 151.752 55.601C151.589 55.3641 151.404 55.0969 151.198 54.7993C150.992 54.5018 150.807 54.1464 150.644 53.7332C150.481 53.32 150.399 52.8104 150.399 52.2043C150.399 50.7608 150.888 49.6065 151.866 48.7415C152.844 47.8765 154.235 47.444 156.039 47.444C157.201 47.444 158.166 47.6313 158.932 48.006C159.698 48.3806 160.271 48.8792 160.651 49.5018C161.032 50.1244 161.222 50.8049 161.222 51.5431C161.222 52.4137 160.996 53.0666 160.545 53.5018C160.094 53.9371 159.516 54.1547 158.809 54.1547C158.027 54.1547 157.397 53.9013 156.919 53.3944C156.441 52.8875 156.202 52.2153 156.202 51.3779V49.9068C156.202 49.5211 156.126 49.2374 155.973 49.0555C155.821 48.8737 155.588 48.7828 155.273 48.7828C154.871 48.7828 154.566 48.9206 154.36 49.196C154.153 49.4715 154.05 49.8682 154.05 50.3861C154.05 50.915 154.172 51.4109 154.417 51.8737C154.661 52.3365 154.963 52.769 155.322 53.1712C155.68 53.5734 156.039 53.9591 156.397 54.3283C156.756 54.6974 157.057 55.061 157.302 55.4192L157.372 55.5265C157.504 55.7411 157.592 55.9546 157.636 56.1672L157.65 56.2539H160.064C160.314 56.2539 160.507 56.3062 160.643 56.4109C160.779 56.5156 160.847 56.6781 160.847 56.8985C160.847 57.2291 160.706 57.4991 160.423 57.7084C160.141 57.9178 159.695 58.0225 159.087 58.0225H157.929V68.32C157.929 68.6285 157.976 68.8655 158.068 69.0307C158.16 69.196 158.31 69.2952 158.516 69.3283L159.918 69.5431C160.168 69.5762 160.352 69.6561 160.472 69.7828C160.591 69.9095 160.651 70.0831 160.651 70.3035ZM128.559 70.6836C127.581 71.1575 126.44 71.3944 125.136 71.3944C123.756 71.3944 122.52 71.1024 121.428 70.5183C120.336 69.9343 119.475 69.0886 118.845 67.9812C118.215 66.8737 117.9 65.5266 117.9 63.9398C117.9 62.4082 118.228 61.039 118.886 59.8324C119.543 58.6258 120.459 57.6726 121.632 56.9729C122.806 56.2732 124.175 55.9233 125.739 55.9233C127.076 55.9233 128.203 56.1217 129.121 56.5183C130.04 56.915 130.74 57.4522 131.224 58.1299C131.707 58.8076 131.949 59.5652 131.949 60.4026C131.949 61.2842 131.697 61.9756 131.191 62.477C130.686 62.9784 129.999 63.2291 129.13 63.2291C128.239 63.2291 127.562 62.9729 127.1 62.4605C126.639 61.9481 126.408 61.2456 126.408 60.3531V59.2952C126.408 58.7553 126.31 58.3476 126.114 58.0721C125.919 57.7966 125.642 57.6588 125.283 57.6588C124.925 57.6588 124.601 57.8049 124.313 58.0969C124.025 58.3889 123.803 58.8269 123.645 59.4109C123.488 59.9949 123.409 60.7167 123.409 61.5762C123.409 62.8104 123.591 63.8462 123.955 64.6836C124.319 65.5211 124.816 66.1492 125.446 66.5679C126.076 66.9867 126.793 67.196 127.597 67.196C128.402 67.196 129.075 67.0776 129.619 66.8407C130.162 66.6038 130.58 66.2043 130.874 65.6423C131.037 65.488 131.164 65.3889 131.257 65.3448C131.349 65.3007 131.439 65.2787 131.525 65.2787C131.634 65.2897 131.724 65.342 131.794 65.4357C131.865 65.5294 131.895 65.6754 131.884 65.8737C131.797 66.9536 131.466 67.9068 130.89 68.7332C130.314 69.5597 129.537 70.2098 128.559 70.6836ZM145.127 70.3531C143.904 71.0252 142.484 71.3613 140.865 71.3613C139.289 71.3613 137.906 71.0335 136.717 70.3779C135.527 69.7222 134.6 68.8159 133.938 67.6588C133.275 66.5018 132.943 65.163 132.943 63.6423C132.943 62.1878 133.291 60.8792 133.987 59.7167C134.682 58.5542 135.644 57.6313 136.871 56.9481C138.099 56.2649 139.512 55.9233 141.109 55.9233C142.695 55.9233 144.081 56.2539 145.265 56.915C146.45 57.5762 147.373 58.4908 148.036 59.6588C148.699 60.8269 149.03 62.1768 149.03 63.7084C149.03 65.163 148.685 66.466 147.995 67.6175C147.305 68.769 146.349 69.6809 145.127 70.3531ZM142.103 69.6423C141.766 69.7084 141.438 69.5597 141.117 69.196C140.797 68.8324 140.492 68.2208 140.205 67.3613C139.917 66.5018 139.642 65.3723 139.381 63.9729C139.132 62.5734 138.99 61.4219 138.958 60.5183C138.925 59.6148 138.99 58.9316 139.153 58.4688C139.316 58.006 139.566 57.736 139.903 57.6588C140.24 57.5927 140.569 57.7415 140.889 58.1051C141.21 58.4688 141.517 59.0803 141.81 59.9398C142.103 60.7993 142.38 61.9288 142.641 63.3283C142.902 64.7277 143.046 65.882 143.073 66.7911C143.1 67.7002 143.03 68.3861 142.861 68.8489C142.693 69.3117 142.44 69.5762 142.103 69.6423ZM171.262 71.0638C171.772 71.0638 172.028 70.8104 172.028 70.3035C172.028 70.0831 171.968 69.9095 171.848 69.7828C171.729 69.6561 171.544 69.5762 171.294 69.5431L169.893 69.3283C169.686 69.2952 169.537 69.196 169.444 69.0307C169.352 68.8655 169.306 68.6285 169.306 68.32V58.0225H170.463C171.071 58.0225 171.517 57.9178 171.799 57.7084C172.082 57.4991 172.223 57.2291 172.223 56.8985C172.223 56.6781 172.155 56.5156 172.02 56.4109C171.884 56.3062 171.691 56.2539 171.441 56.2539H169.027L169.012 56.1672C168.968 55.9546 168.88 55.7411 168.748 55.5265L168.678 55.4192C168.434 55.061 168.132 54.6974 167.774 54.3283C167.415 53.9591 167.057 53.5734 166.698 53.1712C166.339 52.769 166.038 52.3365 165.793 51.8737C165.549 51.4109 165.427 50.915 165.427 50.3861C165.427 49.8682 165.53 49.4715 165.736 49.196C165.943 48.9206 166.247 48.7828 166.649 48.7828C166.964 48.7828 167.198 48.8737 167.35 49.0555C167.502 49.2374 167.578 49.5211 167.578 49.9068V51.3779C167.578 52.2153 167.817 52.8875 168.295 53.3944C168.773 53.9013 169.404 54.1547 170.186 54.1547C170.892 54.1547 171.471 53.9371 171.922 53.5018C172.373 53.0666 172.598 52.4137 172.598 51.5431C172.598 50.8049 172.408 50.1244 172.028 49.5018C171.647 48.8792 171.074 48.3806 170.308 48.006C169.542 47.6313 168.578 47.444 167.415 47.444C165.611 47.444 164.221 47.8765 163.243 48.7415C162.265 49.6065 161.776 50.7608 161.776 52.2043C161.776 52.8104 161.857 53.32 162.02 53.7332C162.183 54.1464 162.368 54.5018 162.574 54.7993C162.781 55.0969 162.966 55.3641 163.129 55.601C163.251 55.7787 163.327 55.9641 163.358 56.1573L163.369 56.2539H161.939C161.73 56.2539 161.56 56.3024 161.43 56.3994L161.376 56.444C161.241 56.5707 161.173 56.7332 161.173 56.9316C161.173 57.1299 161.227 57.298 161.336 57.4357C161.444 57.5734 161.624 57.7029 161.874 57.8241L162.819 58.1382C163.025 58.2263 163.167 58.3228 163.243 58.4274C163.319 58.5321 163.357 58.6616 163.357 58.8159V68.3696C163.357 68.6561 163.308 68.8765 163.21 69.0307C163.112 69.185 162.976 69.2897 162.803 69.3448L162.102 69.5597C161.906 69.6368 161.762 69.736 161.67 69.8572C161.578 69.9784 161.531 70.1382 161.531 70.3365C161.531 70.5679 161.599 70.747 161.735 70.8737C161.871 71.0004 162.047 71.0638 162.265 71.0638H171.262ZM184.024 70.5845C182.97 71.1244 181.753 71.3944 180.373 71.3944C178.851 71.3944 177.515 71.0776 176.363 70.444C175.211 69.8104 174.312 68.9233 173.666 67.7828C173.019 66.6423 172.696 65.3228 172.696 63.8241C172.696 62.2484 173.008 60.8682 173.633 59.6836C174.258 58.4991 175.162 57.5762 176.347 56.915C177.531 56.2539 178.955 55.9233 180.617 55.9233C182.03 55.9233 183.247 56.2015 184.268 56.758C185.289 57.3145 186.074 58.0693 186.623 59.0225C187.172 59.9756 187.446 61.0363 187.446 62.2043C187.446 62.7112 187.31 63.1106 187.039 63.4026L186.974 63.4674C186.706 63.7163 186.337 63.8407 185.865 63.8407H178.414L178.43 63.9169C178.628 64.8244 178.966 65.551 179.444 66.0969C180.259 67.028 181.345 67.4936 182.703 67.4936C183.573 67.4936 184.341 67.2952 185.01 66.8985C185.678 66.5018 186.126 65.9509 186.354 65.2456C186.485 65.1024 186.601 65.006 186.705 64.9564C186.808 64.9068 186.898 64.882 186.974 64.882C187.082 64.882 187.175 64.9261 187.251 65.0142C187.327 65.1024 187.365 65.2511 187.365 65.4605C187.365 66.5404 187.071 67.5294 186.485 68.4274C185.898 69.3255 185.077 70.0445 184.024 70.5845ZM178.244 62.5157C178.229 62.2621 178.221 61.9985 178.221 61.725C178.221 60.6891 178.297 59.8737 178.449 59.2787C178.601 58.6836 178.797 58.2622 179.036 58.0142C179.275 57.7663 179.541 57.6423 179.835 57.6423C180.215 57.6423 180.571 57.9674 180.902 58.6175C181.234 59.2677 181.399 60.3476 181.399 61.8572C181.399 62.32 181.193 62.5514 180.78 62.5514H178.247L178.244 62.5157ZM199.605 70.5845C198.551 71.1244 197.334 71.3944 195.954 71.3944C194.433 71.3944 193.096 71.0776 191.945 70.444C190.793 69.8104 189.894 68.9233 189.247 67.7828C188.601 66.6423 188.277 65.3228 188.277 63.8241C188.277 62.2484 188.59 60.8682 189.215 59.6836C189.839 58.4991 190.744 57.5762 191.928 56.915C193.113 56.2539 194.536 55.9233 196.199 55.9233C197.611 55.9233 198.828 56.2015 199.85 56.758C200.871 57.3145 201.656 58.0693 202.205 59.0225C202.753 59.9756 203.028 61.0363 203.028 62.2043C203.028 62.7112 202.892 63.1106 202.62 63.4026L202.555 63.4674C202.288 63.7163 201.918 63.8407 201.447 63.8407H193.996L194.012 63.9169C194.21 64.8244 194.547 65.551 195.025 66.0969C195.84 67.028 196.927 67.4936 198.285 67.4936C199.154 67.4936 199.923 67.2952 200.591 66.8985C201.259 66.5018 201.708 65.9509 201.936 65.2456C202.066 65.1024 202.183 65.006 202.286 64.9564C202.389 64.9068 202.479 64.882 202.555 64.882C202.664 64.882 202.756 64.9261 202.832 65.0142C202.908 65.1024 202.946 65.2511 202.946 65.4605C202.946 66.5404 202.653 67.5294 202.066 68.4274C201.479 69.3255 200.659 70.0445 199.605 70.5845ZM193.826 62.5157C193.81 62.2621 193.803 61.9985 193.803 61.725C193.803 60.6891 193.879 59.8737 194.031 59.2787C194.183 58.6836 194.379 58.2622 194.618 58.0142C194.857 57.7663 195.123 57.6423 195.416 57.6423C195.797 57.6423 196.152 57.9674 196.484 58.6175C196.815 59.2677 196.981 60.3476 196.981 61.8572C196.981 62.32 196.775 62.5514 196.362 62.5514H193.828L193.826 62.5157ZM213.5 70.8572C213.364 70.9949 213.166 71.0638 212.905 71.0638H204.755C204.516 71.0638 204.329 70.9977 204.193 70.8655C204.057 70.7332 203.989 70.5514 203.989 70.32C203.989 70.1437 204.03 69.9977 204.112 69.882C204.193 69.7663 204.304 69.6588 204.446 69.5597L204.821 69.4109C204.962 69.3448 205.06 69.2401 205.114 69.0969C205.168 68.9536 205.195 68.7167 205.195 68.3861V59.9894C205.195 59.725 205.166 59.5349 205.106 59.4192C205.046 59.3035 204.946 59.2126 204.804 59.1464L204.381 59.0969C204.228 59.0087 204.117 58.915 204.046 58.8159C203.976 58.7167 203.94 58.59 203.94 58.4357C203.94 58.2594 203.995 58.1024 204.103 57.9646C204.212 57.8269 204.397 57.7084 204.658 57.6093L209.286 56.2704C209.558 56.1602 209.786 56.0831 209.971 56.039C210.156 55.9949 210.313 55.9729 210.444 55.9729C210.628 55.9729 210.767 56.039 210.859 56.1712L210.889 56.2192C210.965 56.3574 211.018 56.5783 211.047 56.882L211.171 59.4504L211.199 59.3556C211.254 59.1767 211.315 59.005 211.381 58.8407C211.777 57.8544 212.302 57.1217 212.954 56.6423C213.606 56.163 214.317 55.9233 215.089 55.9233C216.023 55.9233 216.74 56.2374 217.24 56.8655C217.74 57.4936 217.99 58.4467 217.99 59.725C217.99 60.9922 217.729 61.9233 217.208 62.5183C216.686 63.1134 216.012 63.4109 215.187 63.4109C214.382 63.4109 213.788 63.2071 213.402 62.7993C213.016 62.3916 212.812 61.8131 212.791 61.0638L212.774 60.4026C212.763 60.1492 212.715 59.9509 212.628 59.8076C212.541 59.6644 212.399 59.5927 212.204 59.5927C212.008 59.5927 211.837 59.6947 211.691 59.8985C211.544 60.1024 211.432 60.4137 211.356 60.8324C211.28 61.2511 211.242 61.7856 211.242 62.4357V68.2539C211.242 68.5624 211.291 68.8076 211.389 68.9894C211.487 69.1712 211.639 69.2842 211.845 69.3283L213.068 69.5762C213.296 69.6093 213.459 69.6947 213.557 69.8324C213.654 69.9701 213.703 70.1327 213.703 70.32C213.703 70.5404 213.635 70.7195 213.5 70.8572ZM226.53 71.3613C228.149 71.3613 229.57 71.0252 230.793 70.3531C232.015 69.6809 232.971 68.769 233.661 67.6175C234.351 66.466 234.696 65.163 234.696 63.7084C234.696 62.1768 234.365 60.8269 233.702 59.6588C233.039 58.4908 232.115 57.5762 230.931 56.915C229.747 56.2539 228.361 55.9233 226.775 55.9233C225.178 55.9233 223.765 56.2649 222.537 56.9481C221.309 57.6313 220.348 58.5542 219.652 59.7167C218.957 60.8792 218.609 62.1878 218.609 63.6423C218.609 65.163 218.941 66.5018 219.604 67.6588C220.266 68.8159 221.193 69.7222 222.382 70.3779C223.572 71.0335 224.955 71.3613 226.53 71.3613ZM226.783 69.196C227.104 69.5597 227.432 69.7084 227.769 69.6423C228.106 69.5762 228.359 69.3117 228.527 68.8489C228.695 68.3861 228.766 67.7002 228.739 66.7911C228.712 65.882 228.568 64.7277 228.307 63.3283C228.046 61.9288 227.769 60.7993 227.476 59.9398C227.182 59.0803 226.875 58.4688 226.555 58.1051C226.234 57.7415 225.906 57.5927 225.569 57.6588C225.232 57.736 224.982 58.006 224.819 58.4688C224.656 58.9316 224.591 59.6148 224.624 60.5183C224.656 61.4219 224.797 62.5734 225.047 63.9729C225.308 65.3723 225.582 66.5018 225.87 67.3613C226.158 68.2208 226.463 68.8324 226.783 69.196ZM247.621 71.3944C248.534 71.3944 249.283 71.2263 249.87 70.8903C250.457 70.5542 250.894 70.1547 251.182 69.6919C251.47 69.2291 251.614 68.8049 251.614 68.4192C251.614 68.2539 251.579 68.1161 251.508 68.006C251.438 67.8958 251.342 67.8407 251.223 67.8407C251.169 67.8407 251.12 67.8517 251.076 67.8737C251.033 67.8958 250.995 67.9288 250.962 67.9729C250.908 68.1712 250.824 68.309 250.71 68.3861C250.595 68.4633 250.473 68.5018 250.343 68.5018C250.158 68.5018 250.02 68.4385 249.927 68.3117C249.835 68.185 249.789 68.017 249.789 67.8076V60.5018C249.789 59.0473 249.297 57.9206 248.314 57.1217C247.33 56.3228 245.79 55.9233 243.693 55.9233C242.063 55.9233 240.702 56.1272 239.61 56.5349C238.518 56.9426 237.698 57.4633 237.149 58.0969C236.6 58.7305 236.326 59.3779 236.326 60.039C236.326 60.7442 236.53 61.2814 236.937 61.6506C237.345 62.0197 237.934 62.2043 238.706 62.2043C239.651 62.2043 240.395 61.9481 240.938 61.4357C241.482 60.9233 241.753 60.2594 241.753 59.444V58.1878C241.753 57.8792 241.848 57.6396 242.039 57.4688C242.229 57.298 242.465 57.2126 242.748 57.2126C243.052 57.2126 243.294 57.3255 243.473 57.5514C243.652 57.7773 243.742 58.0831 243.742 58.4688L243.741 63.2869L243.655 63.2681C243.393 63.2175 243.089 63.1885 242.744 63.1813L242.568 63.1795C240.232 63.1795 238.491 63.5762 237.345 64.3696C236.198 65.163 235.625 66.2704 235.625 67.6919C235.625 68.7718 236.019 69.6588 236.807 70.3531C237.595 71.0473 238.64 71.3944 239.944 71.3944C240.922 71.3944 241.835 71.1933 242.682 70.7911C243.318 70.4894 243.835 70.0932 244.232 69.6025L244.254 69.5739L244.278 69.6479C244.404 70.0051 244.633 70.3252 244.967 70.6081L245.07 70.6919C245.673 71.1602 246.523 71.3944 247.621 71.3944ZM242.006 68.2787C242.272 68.6368 242.623 68.8159 243.057 68.8159L243.151 68.8126C243.336 68.7997 243.515 68.7481 243.688 68.6577L243.741 68.6276V64.3861L243.66 64.3613C243.476 64.3117 243.258 64.2869 243.008 64.2869C242.585 64.2869 242.245 64.4853 241.99 64.882C241.734 65.2787 241.607 65.8627 241.607 66.6341C241.607 67.3723 241.74 67.9206 242.006 68.2787ZM259.111 71.444C261.046 71.444 262.529 70.9977 263.561 70.1051C264.593 69.2126 265.109 67.9949 265.109 66.4522C265.109 65.5156 264.936 64.6947 264.588 63.9894C264.24 63.2842 263.632 62.6588 262.762 62.1134C261.893 61.5679 260.671 61.0528 259.095 60.5679C258.508 60.3806 258.055 60.1905 257.734 59.9977C257.414 59.8049 257.194 59.5982 257.074 59.3779C256.955 59.1575 256.895 58.9206 256.895 58.6671C256.895 58.2925 257.031 57.9894 257.302 57.758C257.574 57.5266 257.976 57.4109 258.508 57.4109C259.247 57.4109 259.945 57.6588 260.603 58.1547C261.26 58.6506 261.986 59.4991 262.779 60.7002C262.985 60.9536 263.192 61.1382 263.398 61.2539C263.604 61.3696 263.8 61.4054 263.985 61.3613C264.213 61.2952 264.354 61.1437 264.409 60.9068C264.463 60.6699 264.452 60.331 264.376 59.8903L263.952 56.8489C263.909 56.5294 263.827 56.3035 263.708 56.1712C263.588 56.039 263.431 55.9729 263.235 55.9729C263.061 55.9729 262.844 56.0335 262.583 56.1547C262.322 56.2759 262.064 56.3999 261.809 56.5266C261.554 56.6533 261.361 56.7167 261.23 56.7167C261.111 56.7167 260.934 56.6506 260.701 56.5183C260.467 56.3861 260.138 56.2539 259.715 56.1217C259.291 55.9894 258.742 55.9233 258.068 55.9233C256.949 55.9233 255.941 56.1272 255.045 56.5349C254.149 56.9426 253.442 57.5239 252.926 58.2787C252.41 59.0335 252.152 59.9343 252.152 60.9812C252.152 61.9068 252.345 62.7167 252.731 63.4109C253.116 64.1051 253.706 64.7002 254.499 65.196C255.292 65.6919 256.292 66.0941 257.498 66.4026C258.28 66.612 258.881 66.8241 259.299 67.039C259.717 67.2539 260.005 67.488 260.163 67.7415C260.32 67.9949 260.399 68.2759 260.399 68.5845C260.399 68.9922 260.263 69.3283 259.992 69.5927C259.72 69.8572 259.307 69.9894 258.753 69.9894C258.231 69.9894 257.734 69.8765 257.262 69.6506C256.789 69.4247 256.303 69.0363 255.803 68.4853C255.303 67.9343 254.743 67.1795 254.124 66.2208C253.939 65.9674 253.73 65.7911 253.497 65.6919C253.263 65.5927 253.027 65.5982 252.788 65.7084C252.559 65.7966 252.413 65.9839 252.348 66.2704C252.282 66.5569 252.299 66.9095 252.396 67.3283L252.902 70.6175C252.978 70.9481 253.086 71.1685 253.228 71.2787C253.369 71.3889 253.521 71.444 253.684 71.444C253.869 71.444 254.094 71.3834 254.36 71.2622L255.159 70.8985C255.425 70.7773 255.64 70.7167 255.803 70.7167C255.966 70.7167 256.18 70.7773 256.447 70.8985C256.713 71.0197 257.061 71.1409 257.49 71.2622C257.919 71.3834 258.46 71.444 259.111 71.444ZM274.563 70.8241C273.846 71.2043 272.998 71.3944 272.02 71.3944C270.368 71.3944 269.127 70.9922 268.296 70.1878C267.465 69.3834 267.049 68.1161 267.049 66.3861V58.915C267.049 58.6836 267.027 58.5073 266.984 58.3861C266.94 58.2649 266.832 58.1657 266.658 58.0886L265.892 57.8407C265.707 57.7525 265.588 57.6451 265.533 57.5183C265.479 57.3916 265.452 57.2346 265.452 57.0473C265.452 56.8159 265.533 56.6258 265.696 56.477C265.859 56.3283 266.06 56.2539 266.299 56.2539H267.098C267.196 56.2539 267.299 56.2153 267.408 56.1382C267.516 56.061 267.663 55.9068 267.848 55.6754L270.863 53.1464C271.08 52.882 271.297 52.6809 271.515 52.5431C271.732 52.4054 271.949 52.3365 272.167 52.3365C272.417 52.3365 272.612 52.4137 272.753 52.5679L272.798 52.6226C272.91 52.7772 272.965 53.0014 272.965 53.2952L272.965 56.2539H276.372C276.611 56.2539 276.796 56.3062 276.926 56.4109C277.056 56.5156 277.122 56.6781 277.122 56.8985C277.122 57.2071 276.986 57.4715 276.714 57.6919L276.653 57.7374C276.38 57.9275 275.965 58.0225 275.41 58.0225H272.965L272.965 65.5597C272.965 66.3861 273.104 66.9977 273.381 67.3944C273.658 67.7911 274.063 67.9894 274.595 67.9894C274.823 67.9894 275.035 67.9398 275.231 67.8407C275.426 67.7415 275.603 67.612 275.761 67.4522C275.918 67.2925 276.068 67.1134 276.209 66.915C276.35 66.7167 276.486 66.5184 276.616 66.32C276.725 66.2759 276.82 66.2952 276.902 66.3779C276.983 66.4605 277.018 66.6285 277.007 66.882C276.931 67.7745 276.684 68.5597 276.266 69.2374C275.848 69.915 275.28 70.444 274.563 70.8241ZM285.238 71.3944C286.618 71.3944 287.835 71.1244 288.889 70.5845C289.943 70.0445 290.764 69.3255 291.35 68.4274C291.937 67.5294 292.23 66.5404 292.23 65.4605C292.23 65.2511 292.192 65.1024 292.116 65.0142C292.04 64.9261 291.948 64.882 291.839 64.882C291.763 64.882 291.674 64.9068 291.57 64.9564C291.467 65.006 291.35 65.1024 291.22 65.2456C290.992 65.9509 290.543 66.5018 289.875 66.8985C289.207 67.2952 288.438 67.4936 287.569 67.4936C286.211 67.4936 285.124 67.028 284.309 66.0969C283.832 65.551 283.494 64.8244 283.296 63.9169L283.28 63.8407H290.731C291.202 63.8407 291.572 63.7163 291.84 63.4674L291.904 63.4026C292.176 63.1106 292.312 62.7112 292.312 62.2043C292.312 61.0363 292.038 59.9756 291.489 59.0225C290.94 58.0693 290.155 57.3145 289.134 56.758C288.112 56.2015 286.895 55.9233 285.483 55.9233C283.82 55.9233 282.397 56.2539 281.213 56.915C280.028 57.5762 279.124 58.4991 278.499 59.6836C277.874 60.8682 277.562 62.2484 277.562 63.8241C277.562 65.3228 277.885 66.6423 278.531 67.7828C279.178 68.9233 280.077 69.8104 281.229 70.444C282.381 71.0776 283.717 71.3944 285.238 71.3944ZM283.087 61.725C283.087 61.9985 283.095 62.2621 283.11 62.5157L283.112 62.5514H285.646C286.059 62.5514 286.265 62.32 286.265 61.8572C286.265 60.3476 286.099 59.2677 285.768 58.6175C285.437 57.9674 285.081 57.6423 284.7 57.6423C284.407 57.6423 284.141 57.7663 283.902 58.0142C283.663 58.2622 283.467 58.6836 283.315 59.2787C283.163 59.8737 283.087 60.6891 283.087 61.725ZM302.189 71.0638C302.45 71.0638 302.648 70.9949 302.784 70.8572C302.92 70.7195 302.988 70.5404 302.988 70.32C302.988 70.1327 302.939 69.9701 302.841 69.8324C302.743 69.6947 302.58 69.6093 302.352 69.5762L301.129 69.3283C300.923 69.2842 300.771 69.1712 300.673 68.9894C300.575 68.8076 300.526 68.5624 300.526 68.2539V62.4357C300.526 61.7856 300.564 61.2511 300.641 60.8324C300.717 60.4137 300.828 60.1024 300.975 59.8985C301.121 59.6947 301.292 59.5927 301.488 59.5927C301.684 59.5927 301.825 59.6644 301.912 59.8076C301.999 59.9509 302.048 60.1492 302.059 60.4026L302.075 61.0638C302.097 61.8131 302.3 62.3916 302.686 62.7993C303.072 63.2071 303.667 63.4109 304.471 63.4109C305.297 63.4109 305.97 63.1134 306.492 62.5183C307.013 61.9233 307.274 60.9922 307.274 59.725C307.274 58.4467 307.024 57.4936 306.524 56.8655C306.025 56.2374 305.307 55.9233 304.373 55.9233C303.601 55.9233 302.89 56.163 302.238 56.6423C301.586 57.1217 301.062 57.8544 300.665 58.8407C300.599 59.005 300.538 59.1767 300.483 59.3556L300.455 59.4509L300.331 56.882C300.302 56.5783 300.249 56.3574 300.173 56.2192L300.143 56.1712C300.051 56.039 299.913 55.9729 299.728 55.9729C299.597 55.9729 299.44 55.9949 299.255 56.039C299.07 56.0831 298.842 56.1602 298.571 56.2704L293.942 57.6093C293.681 57.7084 293.496 57.8269 293.388 57.9646C293.279 58.1024 293.225 58.2594 293.225 58.4357C293.225 58.59 293.26 58.7167 293.331 58.8159C293.401 58.915 293.513 59.0087 293.665 59.0969L294.088 59.1464C294.23 59.2126 294.33 59.3035 294.39 59.4192C294.45 59.5349 294.48 59.725 294.48 59.9894V68.3861C294.48 68.7167 294.452 68.9536 294.398 69.0969C294.344 69.2401 294.246 69.3448 294.105 69.4109L293.73 69.5597C293.589 69.6588 293.477 69.7663 293.396 69.882C293.314 69.9977 293.274 70.1437 293.274 70.32C293.274 70.5514 293.341 70.7332 293.477 70.8655C293.613 70.9977 293.801 71.0638 294.04 71.0638H302.189ZM319.351 70.1051C318.319 70.9977 316.836 71.444 314.902 71.444C314.25 71.444 313.709 71.3834 313.28 71.2622C312.851 71.1409 312.503 71.0197 312.237 70.8985C311.971 70.7773 311.756 70.7167 311.593 70.7167C311.43 70.7167 311.216 70.7773 310.949 70.8985L310.151 71.2622C309.885 71.3834 309.659 71.444 309.474 71.444C309.311 71.444 309.159 71.3889 309.018 71.2787C308.877 71.1685 308.768 70.9481 308.692 70.6175L308.187 67.3283C308.089 66.9095 308.073 66.5569 308.138 66.2704C308.203 65.9839 308.35 65.7966 308.578 65.7084C308.817 65.5982 309.053 65.5927 309.287 65.6919C309.521 65.7911 309.73 65.9674 309.914 66.2208C310.534 67.1795 311.093 67.9343 311.593 68.4853C312.093 69.0363 312.579 69.4247 313.052 69.6506C313.525 69.8765 314.022 69.9894 314.543 69.9894C315.097 69.9894 315.51 69.8572 315.782 69.5927C316.054 69.3283 316.189 68.9922 316.189 68.5845C316.189 68.2759 316.111 67.9949 315.953 67.7415C315.796 67.488 315.508 67.2539 315.089 67.039C314.671 66.8241 314.071 66.612 313.288 66.4026C312.082 66.0941 311.083 65.6919 310.289 65.196C309.496 64.7002 308.907 64.1051 308.521 63.4109C308.135 62.7167 307.942 61.9068 307.942 60.9812C307.942 59.9343 308.2 59.0335 308.717 58.2787C309.233 57.5239 309.939 56.9426 310.835 56.5349C311.732 56.1272 312.74 55.9233 313.859 55.9233C314.532 55.9233 315.081 55.9894 315.505 56.1217C315.929 56.2539 316.257 56.3861 316.491 56.5183C316.725 56.6506 316.901 56.7167 317.021 56.7167C317.151 56.7167 317.344 56.6533 317.599 56.5266C317.855 56.3999 318.113 56.2759 318.373 56.1547C318.634 56.0335 318.852 55.9729 319.025 55.9729C319.221 55.9729 319.379 56.039 319.498 56.1712C319.618 56.3035 319.699 56.5294 319.743 56.8489L320.166 59.8903C320.242 60.331 320.253 60.6699 320.199 60.9068C320.145 61.1437 320.003 61.2952 319.775 61.3613C319.59 61.4054 319.395 61.3696 319.188 61.2539C318.982 61.1382 318.776 60.9536 318.569 60.7002C317.776 59.4991 317.051 58.6506 316.393 58.1547C315.736 57.6588 315.038 57.4109 314.299 57.4109C313.766 57.4109 313.364 57.5266 313.093 57.758C312.821 57.9894 312.685 58.2925 312.685 58.6671C312.685 58.9206 312.745 59.1575 312.865 59.3779C312.984 59.5982 313.204 59.8049 313.525 59.9977C313.845 60.1905 314.299 60.3806 314.886 60.5679C316.461 61.0528 317.684 61.5679 318.553 62.1134C319.422 62.6588 320.031 63.2842 320.378 63.9894C320.726 64.6947 320.9 65.5156 320.9 66.4522C320.9 67.9949 320.384 69.2126 319.351 70.1051Z" fill="white"/>
<path fill-rule="evenodd" clip-rule="evenodd" d="M99.3891 51.4466C95.8747 47.9351 90.6653 47.4296 87.7764 50.3216C84.886 53.2122 85.3914 58.4218 88.8999 61.9348C89.8358 62.8708 90.9143 63.5863 92.0528 64.0993C92.4263 61.9288 93.4973 59.8423 95.1232 58.1293C94.5847 57.9372 94.0327 57.7752 93.4568 57.6177C90.0458 56.6817 88.3509 53.8362 87.9549 50.5001C88.2824 50.894 88.5806 51.3071 88.8779 51.719C89.4548 52.5182 90.0283 53.3128 90.8063 53.9532C92.0166 54.9497 93.345 55.3344 94.7983 55.7553C94.8544 55.7715 94.9107 55.7878 94.9672 55.8042C95.6557 56.0037 96.2542 56.2992 96.8032 56.6442C98.2462 55.5897 99.8736 54.8877 101.554 54.5982C101.042 53.4597 100.325 52.3827 99.3891 51.4466ZM93.4463 64.9334C93.6698 62.7598 94.7227 60.6343 96.4102 58.9468C99.9246 55.4352 105.134 54.9282 108.023 57.8217C110.913 60.7123 110.409 65.9219 106.896 69.4349C105.209 71.1224 103.084 72.1755 100.91 72.4005C100.621 72.429 100.334 72.444 100.054 72.444C98.1847 72.444 96.5152 71.7885 95.2852 70.5584C93.8693 69.1439 93.2153 67.1459 93.4463 64.9334ZM98.5866 66.7169C99.7386 65.8379 100.985 65.4899 102.341 65.1194C105.752 64.1833 107.445 61.3378 107.843 58.0017C107.518 58.3934 107.222 58.8037 106.927 59.2128C106.348 60.0148 105.773 60.8121 104.992 61.4548C103.778 62.453 102.446 62.8383 100.986 63.2608L100.831 63.3058C97.4932 64.2748 95.8432 67.0964 95.4622 70.3799C95.791 69.9849 96.0922 69.5748 96.3918 69.1669C97.0421 68.2814 97.685 67.406 98.5866 66.7169Z" fill="#0E8784"/>
<path d="M429.096 57.248V60.404C429.096 60.452 429.072 60.476 429.024 60.476H426.396C426.348 60.476 426.324 60.452 426.324 60.404V57.248C426.324 57.116 426.252 57.044 426.12 57.044H424.836C424.704 57.044 424.632 57.116 424.632 57.248V65.24C424.632 65.372 424.704 65.444 424.836 65.444H426.12C426.252 65.444 426.324 65.372 426.324 65.24V62C426.324 61.952 426.348 61.928 426.396 61.928H429.024C429.072 61.928 429.096 61.952 429.096 62V65.24C429.096 65.372 429.168 65.444 429.3 65.444H430.584C430.716 65.444 430.788 65.372 430.788 65.24V57.248C430.788 57.116 430.716 57.044 430.584 57.044H429.3C429.168 57.044 429.096 57.116 429.096 57.248ZM436.078 65.576C437.986 65.576 439.246 64.352 439.246 62.528V59.96C439.246 58.16 437.986 56.948 436.078 56.948C434.182 56.948 432.922 58.16 432.922 59.96V62.528C432.922 64.352 434.182 65.576 436.078 65.576ZM436.078 64.124C435.202 64.124 434.614 63.512 434.614 62.588V59.948C434.614 59.012 435.202 58.4 436.078 58.4C436.966 58.4 437.554 59.012 437.554 59.948V62.588C437.554 63.512 436.966 64.124 436.078 64.124ZM441.682 65.444H442.966C443.098 65.444 443.17 65.372 443.17 65.24V60.044C443.17 59.972 443.218 59.96 443.254 60.02L444.454 62C444.514 62.096 444.586 62.132 444.694 62.132H445.306C445.414 62.132 445.486 62.096 445.546 62L446.758 60.02C446.794 59.96 446.842 59.972 446.842 60.044V65.24C446.842 65.372 446.914 65.444 447.046 65.444H448.33C448.462 65.444 448.534 65.372 448.534 65.24V57.248C448.534 57.116 448.462 57.044 448.33 57.044H447.046C446.938 57.044 446.866 57.08 446.806 57.176L445.042 59.984C445.018 60.032 444.97 60.032 444.946 59.984L443.206 57.176C443.146 57.08 443.074 57.044 442.966 57.044H441.682C441.55 57.044 441.478 57.116 441.478 57.248V65.24C441.478 65.372 441.55 65.444 441.682 65.444ZM456.682 58.292V57.248C456.682 57.116 456.61 57.044 456.478 57.044H451.054C450.922 57.044 450.85 57.116 450.85 57.248V65.24C450.85 65.372 450.922 65.444 451.054 65.444H456.478C456.61 65.444 456.682 65.372 456.682 65.24V64.196C456.682 64.064 456.61 63.992 456.478 63.992H452.614C452.566 63.992 452.542 63.956 452.542 63.92V62C452.542 61.952 452.578 61.928 452.614 61.928H455.122C455.254 61.928 455.326 61.856 455.326 61.724V60.68C455.326 60.548 455.254 60.476 455.122 60.476H452.614C452.566 60.476 452.542 60.452 452.542 60.404V58.568C452.542 58.52 452.578 58.496 452.614 58.496H456.478C456.61 58.496 456.682 58.424 456.682 58.292Z" fill="#83888F"/>
<path d="M497.032 65.444H498.424C498.568 65.444 498.64 65.348 498.592 65.216L496.036 57.212C496 57.104 495.928 57.044 495.808 57.044H494.044C493.924 57.044 493.852 57.104 493.816 57.212L491.26 65.216C491.212 65.348 491.284 65.444 491.428 65.444H492.82C492.94 65.444 493.012 65.384 493.048 65.276L493.384 64.16C493.396 64.112 493.42 64.1 493.456 64.1H496.396C496.432 64.1 496.456 64.112 496.468 64.16L496.804 65.276C496.84 65.384 496.912 65.444 497.032 65.444ZM493.804 62.708L494.872 59.048C494.896 58.988 494.944 58.988 494.968 59.048L496.048 62.708C496.06 62.768 496.036 62.792 495.988 62.792H493.864C493.816 62.792 493.792 62.768 493.804 62.708ZM505.598 61.052C506.258 60.728 506.606 60.188 506.606 59.348C506.606 57.716 505.55 57.044 503.762 57.044H500.81C500.678 57.044 500.606 57.116 500.606 57.248V65.24C500.606 65.372 500.678 65.444 500.81 65.444H503.858C505.466 65.444 506.726 64.724 506.726 63.092C506.726 62.18 506.366 61.532 505.598 61.148C505.55 61.124 505.55 61.076 505.598 61.052ZM502.37 58.496H503.762C504.518 58.496 504.95 58.88 504.95 59.504C504.95 60.116 504.518 60.488 503.762 60.488H502.37C502.322 60.488 502.298 60.464 502.298 60.416V58.568C502.298 58.52 502.322 58.496 502.37 58.496ZM503.858 63.98H502.37C502.322 63.98 502.298 63.956 502.298 63.908V61.94C502.298 61.892 502.334 61.868 502.37 61.868H503.846C504.602 61.868 505.034 62.264 505.034 62.924C505.034 63.584 504.602 63.98 503.858 63.98ZM511.946 65.576C513.854 65.576 515.114 64.352 515.114 62.528V59.96C515.114 58.16 513.854 56.948 511.946 56.948C510.05 56.948 508.79 58.16 508.79 59.96V62.528C508.79 64.352 510.05 65.576 511.946 65.576ZM511.946 64.124C511.07 64.124 510.482 63.512 510.482 62.588V59.948C510.482 59.012 511.07 58.4 511.946 58.4C512.834 58.4 513.422 59.012 513.422 59.948V62.588C513.422 63.512 512.834 64.124 511.946 64.124ZM520.383 65.54C522.243 65.54 523.491 64.388 523.491 62.66V57.248C523.491 57.116 523.419 57.044 523.287 57.044H522.003C521.871 57.044 521.799 57.116 521.799 57.248V62.672C521.799 63.512 521.235 64.088 520.383 64.088C519.531 64.088 518.967 63.512 518.967 62.672V57.248C518.967 57.116 518.895 57.044 518.763 57.044H517.479C517.347 57.044 517.275 57.116 517.275 57.248V62.66C517.275 64.388 518.523 65.54 520.383 65.54ZM531.541 57.044H525.613C525.481 57.044 525.409 57.116 525.409 57.248V58.304C525.409 58.436 525.481 58.508 525.613 58.508H527.629C527.677 58.508 527.701 58.532 527.701 58.58V65.24C527.701 65.372 527.773 65.444 527.905 65.444H529.189C529.321 65.444 529.393 65.372 529.393 65.24V58.58C529.393 58.532 529.417 58.508 529.465 58.508H531.541C531.673 58.508 531.745 58.436 531.745 58.304V57.248C531.745 57.116 531.673 57.044 531.541 57.044ZM540.121 65.54C541.981 65.54 543.229 64.388 543.229 62.66V57.248C543.229 57.116 543.157 57.044 543.025 57.044H541.741C541.609 57.044 541.537 57.116 541.537 57.248V62.672C541.537 63.512 540.973 64.088 540.121 64.088C539.269 64.088 538.705 63.512 538.705 62.672V57.248C538.705 57.116 538.633 57.044 538.501 57.044H537.217C537.085 57.044 537.013 57.116 537.013 57.248V62.66C537.013 64.388 538.261 65.54 540.121 65.54ZM548.387 65.54C550.271 65.54 551.459 64.568 551.459 63.104C551.459 61.472 549.947 61.004 548.855 60.608C547.523 60.14 546.995 59.924 546.995 59.3C546.995 58.736 547.427 58.4 548.195 58.4C549.203 58.4 549.743 58.988 549.743 59.612V59.732C549.743 59.804 549.815 59.852 549.947 59.852H551.207C551.339 59.852 551.411 59.78 551.411 59.648V59.528C551.411 57.98 550.103 56.948 548.255 56.948C546.539 56.948 545.327 57.848 545.327 59.324C545.327 60.908 546.767 61.472 548.015 61.904C549.155 62.324 549.767 62.54 549.767 63.152C549.767 63.632 549.431 64.088 548.519 64.088C547.547 64.088 546.935 63.56 546.935 62.948V62.78C546.935 62.684 546.863 62.624 546.731 62.624H545.471C545.339 62.624 545.267 62.696 545.267 62.828V63.032C545.267 64.556 546.503 65.54 548.387 65.54Z" fill="#83888F"/>
<path d="M588.584 65.54C590.444 65.54 591.692 64.424 591.692 62.744V62.684C591.692 62.648 591.608 62.636 591.488 62.624L590.204 62.564C590.072 62.552 590 62.612 590 62.696C590 63.524 589.436 64.088 588.584 64.088C587.72 64.088 587.156 63.524 587.156 62.696V59.804C587.156 58.964 587.72 58.4 588.584 58.4C589.436 58.4 590 58.964 590 59.804V59.876C590 59.912 590.084 59.948 590.216 59.936L591.5 59.852C591.62 59.84 591.692 59.792 591.692 59.72C591.692 58.052 590.444 56.948 588.584 56.948C586.7 56.948 585.464 58.1 585.464 59.852V62.624C585.464 64.376 586.7 65.54 588.584 65.54ZM598.512 65.444H599.868C600.024 65.444 600.084 65.336 600.012 65.204L598.428 61.892C598.404 61.856 598.416 61.808 598.464 61.796C599.412 61.472 600 60.656 600 59.564C600 58.052 598.98 57.032 597.432 57.032H594.06C593.928 57.032 593.856 57.104 593.856 57.236V65.24C593.856 65.372 593.928 65.444 594.06 65.444H595.344C595.476 65.444 595.548 65.372 595.548 65.24V62.036C595.548 61.988 595.572 61.964 595.62 61.964H596.712C596.748 61.964 596.784 61.988 596.796 62.024L598.272 65.288C598.32 65.384 598.404 65.444 598.512 65.444ZM595.62 58.496H597.18C597.852 58.496 598.32 58.94 598.32 59.588C598.32 60.224 597.852 60.656 597.18 60.656H595.62C595.572 60.656 595.548 60.62 595.548 60.584V58.568C595.548 58.52 595.572 58.496 595.62 58.496ZM607.982 58.292V57.248C607.982 57.116 607.91 57.044 607.778 57.044H602.354C602.222 57.044 602.15 57.116 602.15 57.248V65.24C602.15 65.372 602.222 65.444 602.354 65.444H607.778C607.91 65.444 607.982 65.372 607.982 65.24V64.196C607.982 64.064 607.91 63.992 607.778 63.992H603.914C603.866 63.992 603.842 63.956 603.842 63.92V62C603.842 61.952 603.878 61.928 603.914 61.928H606.422C606.554 61.928 606.626 61.856 606.626 61.724V60.68C606.626 60.548 606.554 60.476 606.422 60.476H603.914C603.866 60.476 603.842 60.452 603.842 60.404V58.568C603.842 58.52 603.878 58.496 603.914 58.496H607.778C607.91 58.496 607.982 58.424 607.982 58.292ZM615.481 65.444H616.873C617.017 65.444 617.089 65.348 617.041 65.216L614.485 57.212C614.449 57.104 614.377 57.044 614.257 57.044H612.493C612.373 57.044 612.301 57.104 612.265 57.212L609.709 65.216C609.661 65.348 609.733 65.444 609.877 65.444H611.269C611.389 65.444 611.461 65.384 611.497 65.276L611.833 64.16C611.845 64.112 611.869 64.1 611.905 64.1H614.845C614.881 64.1 614.905 64.112 614.917 64.16L615.253 65.276C615.289 65.384 615.361 65.444 615.481 65.444ZM612.253 62.708L613.321 59.048C613.345 58.988 613.393 58.988 613.417 59.048L614.497 62.708C614.509 62.768 614.485 62.792 614.437 62.792H612.313C612.265 62.792 612.241 62.768 612.253 62.708ZM623.759 57.044H617.831C617.699 57.044 617.627 57.116 617.627 57.248V58.304C617.627 58.436 617.699 58.508 617.831 58.508H619.847C619.895 58.508 619.919 58.532 619.919 58.58V65.24C619.919 65.372 619.991 65.444 620.123 65.444H621.407C621.539 65.444 621.611 65.372 621.611 65.24V58.58C621.611 58.532 621.635 58.508 621.683 58.508H623.759C623.891 58.508 623.963 58.436 623.963 58.304V57.248C623.963 57.116 623.891 57.044 623.759 57.044ZM631.798 58.292V57.248C631.798 57.116 631.726 57.044 631.594 57.044H626.17C626.038 57.044 625.966 57.116 625.966 57.248V65.24C625.966 65.372 626.038 65.444 626.17 65.444H631.594C631.726 65.444 631.798 65.372 631.798 65.24V64.196C631.798 64.064 631.726 63.992 631.594 63.992H627.73C627.682 63.992 627.658 63.956 627.658 63.92V62C627.658 61.952 627.694 61.928 627.73 61.928H630.238C630.37 61.928 630.442 61.856 630.442 61.724V60.68C630.442 60.548 630.37 60.476 630.238 60.476H627.73C627.682 60.476 627.658 60.452 627.658 60.404V58.568C627.658 58.52 627.694 58.496 627.73 58.496H631.594C631.726 58.496 631.798 58.424 631.798 58.292ZM639.55 65.432H640.822C640.954 65.432 641.026 65.36 641.026 65.228V62.264C641.026 62.24 641.038 62.192 641.05 62.168L643.498 57.284C643.57 57.152 643.498 57.044 643.342 57.044H641.938C641.83 57.044 641.746 57.104 641.698 57.2L640.234 60.32C640.21 60.368 640.162 60.368 640.138 60.32L638.674 57.2C638.626 57.104 638.542 57.044 638.434 57.044H637.042C636.886 57.044 636.826 57.152 636.898 57.284L639.322 62.168C639.334 62.192 639.346 62.24 639.346 62.264V65.228C639.346 65.36 639.418 65.432 639.55 65.432ZM648.129 65.576C650.037 65.576 651.297 64.352 651.297 62.528V59.96C651.297 58.16 650.037 56.948 648.129 56.948C646.233 56.948 644.973 58.16 644.973 59.96V62.528C644.973 64.352 646.233 65.576 648.129 65.576ZM648.129 64.124C647.253 64.124 646.665 63.512 646.665 62.588V59.948C646.665 59.012 647.253 58.4 648.129 58.4C649.017 58.4 649.605 59.012 649.605 59.948V62.588C649.605 63.512 649.017 64.124 648.129 64.124ZM656.566 65.54C658.426 65.54 659.674 64.388 659.674 62.66V57.248C659.674 57.116 659.602 57.044 659.47 57.044H658.186C658.054 57.044 657.982 57.116 657.982 57.248V62.672C657.982 63.512 657.418 64.088 656.566 64.088C655.714 64.088 655.15 63.512 655.15 62.672V57.248C655.15 57.116 655.078 57.044 654.946 57.044H653.662C653.53 57.044 653.458 57.116 653.458 57.248V62.66C653.458 64.388 654.706 65.54 656.566 65.54ZM666.644 65.444H668C668.156 65.444 668.216 65.336 668.144 65.204L666.56 61.892C666.536 61.856 666.548 61.808 666.596 61.796C667.544 61.472 668.132 60.656 668.132 59.564C668.132 58.052 667.112 57.032 665.564 57.032H662.192C662.06 57.032 661.988 57.104 661.988 57.236V65.24C661.988 65.372 662.06 65.444 662.192 65.444H663.476C663.608 65.444 663.68 65.372 663.68 65.24V62.036C663.68 61.988 663.704 61.964 663.752 61.964H664.844C664.88 61.964 664.916 61.988 664.928 62.024L666.404 65.288C666.452 65.384 666.536 65.444 666.644 65.444ZM663.752 58.496H665.312C665.984 58.496 666.452 58.94 666.452 59.588C666.452 60.224 665.984 60.656 665.312 60.656H663.752C663.704 60.656 663.68 60.62 663.68 60.584V58.568C663.68 58.52 663.704 58.496 663.752 58.496ZM677.075 57.032H673.751C673.619 57.032 673.547 57.104 673.547 57.236V65.24C673.547 65.372 673.619 65.444 673.751 65.444H675.035C675.167 65.444 675.239 65.372 675.239 65.24V62.252C675.239 62.204 675.275 62.18 675.311 62.18H677.003C678.635 62.18 679.727 61.16 679.727 59.636C679.727 58.076 678.671 57.032 677.075 57.032ZM676.823 60.824H675.311C675.263 60.824 675.239 60.8 675.239 60.752V58.568C675.239 58.52 675.263 58.496 675.311 58.496H676.823C677.555 58.496 678.047 58.964 678.047 59.672C678.047 60.356 677.555 60.824 676.823 60.824ZM681.894 65.444H687.306C687.438 65.444 687.51 65.372 687.51 65.24V64.196C687.51 64.064 687.438 63.992 687.306 63.992H683.454C683.406 63.992 683.382 63.968 683.382 63.92V57.248C683.382 57.116 683.31 57.044 683.178 57.044H681.894C681.762 57.044 681.69 57.116 681.69 57.248V65.24C681.69 65.372 681.762 65.444 681.894 65.444ZM695.08 65.444H696.472C696.616 65.444 696.688 65.348 696.64 65.216L694.084 57.212C694.048 57.104 693.976 57.044 693.856 57.044H692.092C691.972 57.044 691.9 57.104 691.864 57.212L689.308 65.216C689.26 65.348 689.332 65.444 689.476 65.444H690.868C690.988 65.444 691.06 65.384 691.096 65.276L691.432 64.16C691.444 64.112 691.468 64.1 691.504 64.1H694.444C694.48 64.1 694.504 64.112 694.516 64.16L694.852 65.276C694.888 65.384 694.96 65.444 695.08 65.444ZM691.852 62.708L692.92 59.048C692.944 58.988 692.992 58.988 693.016 59.048L694.096 62.708C694.108 62.768 694.084 62.792 694.036 62.792H691.912C691.864 62.792 691.84 62.768 691.852 62.708ZM698.858 65.444H700.13C700.262 65.444 700.334 65.372 700.334 65.24L700.322 60.284C700.322 60.212 700.37 60.2 700.406 60.26L703.418 65.3C703.478 65.396 703.55 65.444 703.658 65.444H704.882C705.014 65.444 705.086 65.372 705.086 65.24V57.248C705.086 57.116 705.014 57.044 704.882 57.044H703.622C703.49 57.044 703.418 57.116 703.418 57.248V62.144C703.418 62.216 703.37 62.228 703.334 62.168L700.334 57.176C700.274 57.08 700.202 57.044 700.094 57.044H698.858C698.726 57.044 698.654 57.116 698.654 57.248V65.24C698.654 65.372 698.726 65.444 698.858 65.444Z" fill="#83888F"/>
</g>
</svg>
